<?xml version="1.0" standalone="no"?><!DOCTYPE svg PUBLIC "-//W3C//DTD SVG 1.1//EN" "http://www.w3.org/Graphics/SVG/1.1/DTD/svg11.dtd"><svg t="1638114998905" class="icon" viewBox="0 0 1024 1024" version="1.1" xmlns="http://www.w3.org/2000/svg" p-id="2452" xmlns:xlink="http://www.w3.org/1999/xlink" width="200" height="200"><defs><style type="text/css"></style></defs><path d="M754.268 413.776c0.271 0.12 0.544 0.235 0.818 0.345L513.98 945.626l-0.212 0.419a5.747 5.747 0 0 1-10.28-0.473L270.63 418.027a21.824 21.824 0 0 0 1.796-2.026z m-517.127 2.388L455.023 909.78 41 417.069l196.141-0.905z m749.86-3.464L563.224 909.411 788.13 413.619l198.871-0.919zM240.749 118.975l-6.956 267.32-190.669 0.881 197.625-268.201z m250.63-16.264c7.018-9.44 20.32-11.645 30.028-4.863a21.839 21.839 0 0 1 5.232 5.165l201.78 280.998-435.007 2.009 197.584-282.777z m300.04 14.073l186.583 266.075-186.583 0.861V116.784zM548.933 82.999l212.6 21.857v274.035L550.914 85.584l-0.742-1.008a51.721 51.721 0 0 0-1.24-1.577z m-80.266 0.24a52.48 52.48 0 0 0-2.17 2.889L263.955 376.002l7.055-271.083z" fill="#333333" p-id="2453"></path></svg>