<?xml version="1.0" standalone="no"?><!DOCTYPE svg PUBLIC "-//W3C//DTD SVG 1.1//EN" "http://www.w3.org/Graphics/SVG/1.1/DTD/svg11.dtd"><svg t="1638115094333" class="icon" viewBox="0 0 1024 1024" version="1.1" xmlns="http://www.w3.org/2000/svg" p-id="6398" xmlns:xlink="http://www.w3.org/1999/xlink" width="200" height="200"><defs><style type="text/css"></style></defs><path d="M512.1 445.6v365.3l-114.2-62.3-45.7-120.3 76.7-149.5z" fill="#EBF2FF" p-id="6399"></path><path d="M512.1 72v373.6L429 478.8 316.3 344.5c25.4-45.8 53.2-88.8 79.6-126.3C457.5 130.7 512.1 72 512.1 72z" fill="#D8E5FE" p-id="6400"></path><path d="M428.9 478.8l-76.7 149.5L224 662.9c-0.5-9.3-0.6-18.8-0.5-28.5 1.6-96.1 42.2-199 92.7-290l112.7 134.4z" fill="#BCD6FD" p-id="6401"></path><path d="M397.9 748.6L296.7 855.2C257.3 811.3 228 749.3 224 662.9l128.2-34.6 45.7 120.3z" fill="#B0C5FD" p-id="6402"></path><path d="M512.1 810.9V952c-51.6 0-148.2-22.1-215.3-96.8L398 748.6l114.1 62.3z" fill="#98B7F9" p-id="6403"></path><path d="M707.9 344.5L595.2 478.8h-0.1l-83-33.2V72s54.5 58.6 116.2 146v0.1c26.5 37.6 54.2 80.5 79.6 126.4z" fill="#BCD6FD" p-id="6404"></path><path d="M800.5 634.4c0.1 9.7 0 19.2-0.5 28.5l-128.1-34.6-76.7-149.5 112.7-134.4c50.4 91.1 91.1 193.9 92.6 290z" fill="#B0C5FD" p-id="6405"></path><path d="M800 662.9c-4.1 86.2-33.3 148.2-72.8 192.1l-101-106.5 45.7-120.3L800 662.9z" fill="#98B7F9" p-id="6406"></path><path d="M727.3 855c-67 74.8-163.6 97-215.2 97V810.9l114.2-62.3 101 106.4z" fill="#7FA9F4" p-id="6407"></path><path d="M512.1 72v373.6L395.9 218.2C457.5 130.7 512.1 72 512.1 72z" fill="#EBF2FF" p-id="6408"></path><path d="M628.3 218v0.1L512.1 445.6V72s54.5 58.6 116.2 146zM671.8 628.3l-45.6 120.3-114.1 62.3V445.6l83 33.2z" fill="#D8E5FE" p-id="6409"></path><path d="M653 488.4c-20.7-4.7-36.9-21-41.6-41.6-0.4-1.6-2.4-1.6-2.8 0-4.7 20.7-21 36.9-41.6 41.6-1.6 0.4-1.6 2.4 0 2.8 20.7 4.7 36.9 21 41.6 41.6 0.4 1.6 2.4 1.6 2.8 0 4.7-20.7 21-36.9 41.6-41.6 1.5-0.4 1.5-2.5 0-2.8zM552.7 434.3c-16.2-4.2-29-17-33.2-33.2-0.4-1.6-2.5-1.6-3 0-4.2 16.2-17 29-33.2 33.2-1.6 0.4-1.6 2.5 0 3 16.2 4.2 29 17 33.2 33.2 0.4 1.6 2.5 1.6 3 0 4.2-16.2 17-29 33.2-33.2 1.6-0.5 1.6-2.6 0-3z" fill="#FFFFFF" p-id="6410"></path></svg>