<?xml version="1.0" standalone="no"?><!DOCTYPE svg PUBLIC "-//W3C//DTD SVG 1.1//EN" "http://www.w3.org/Graphics/SVG/1.1/DTD/svg11.dtd"><svg t="1638115049595" class="icon" viewBox="0 0 1024 1024" version="1.1" xmlns="http://www.w3.org/2000/svg" p-id="4965" xmlns:xlink="http://www.w3.org/1999/xlink" width="200" height="200"><defs><style type="text/css"></style></defs><path d="M512 112v400l-62.5-108.2zM512 512v400l-62.5-291.7z" fill="#FFF48A" p-id="4966"></path><path d="M165.6 712L387 512h125l-62.5 108.3z" fill="#FFC25A" p-id="4967"></path><path d="M574.5 620.3L512 512h125l221.4 200z" fill="#FFAF45" p-id="4968"></path><path d="M512 512h125l221.4-200-283.9 91.8z" fill="#FFC25A" p-id="4969"></path><path d="M512 112l-62.5 291.8-134.4-240c58.2-33 125.4-51.8 196.9-51.8z" fill="#FFE572" p-id="4970"></path><path d="M387 512H112c0-72.4 19.3-140.4 53-199l0.6-1L387 512z" fill="#FFC25A" p-id="4971"></path><path d="M387 512L165.6 712l-2.2-3.5C130.8 650.4 112 583.5 112 512h275z" fill="#FFAF45" p-id="4972"></path><path d="M449.5 403.8L165.6 312v-0.1c35.7-61.8 87.4-113 149.5-148.1l134.4 240z" fill="#FFC25A" p-id="4973"></path><path d="M512 912c-67.1 0-130.5-16.6-186.1-45.9l123.6-245.9L512 912z" fill="#FFE572" p-id="4974"></path><path d="M449.5 620.3L325.9 866.1c-66.6-35-122-88.2-159.8-153.1l-0.5-1 283.9-91.7z" fill="#FFAF45" p-id="4975"></path><path d="M858.4 712l-0.7 1.4c-33.3 57-80.1 105-136.4 139.6L574.5 620.3 858.4 712z" fill="#FF9843" p-id="4976"></path><path d="M721.2 853c-60.9 37.4-132.6 59-209.2 59l62.5-291.7L721.2 853z" fill="#FFC25A" p-id="4977"></path><path d="M912 512H637l221.4-200 0.6 1c33.8 58.6 53 126.6 53 199z" fill="#FFAF45" p-id="4978"></path><path d="M912 512c0 72.3-19.2 140-52.6 198.5l-1 1.5L637 512h275z" fill="#FF9843" p-id="4979"></path><path d="M858.4 312l-283.9 91.8L714.4 167c59.2 35 108.9 84.6 143.6 144.1l0.4 0.9z" fill="#FFAF45" p-id="4980"></path><path d="M714.4 167L574.5 403.8 512 112c73.9 0 143 20 202.4 55z" fill="#FFC25A" p-id="4981"></path><path d="M574.5 620.3L512 912V512zM574.5 403.8L512 512V112z" fill="#FFE572" p-id="4982"></path><path d="M683.4 499.8c-20.7-4.7-36.9-21-41.6-41.6-0.4-1.6-2.4-1.6-2.8 0-4.7 20.7-21 36.9-41.6 41.6-1.6 0.4-1.6 2.4 0 2.8 20.7 4.7 36.9 21 41.6 41.6 0.4 1.6 2.4 1.6 2.8 0 4.7-20.7 21-36.9 41.6-41.6 1.5-0.4 1.5-2.5 0-2.8zM615.9 388.4c-16.2-4.2-29-17-33.2-33.2-0.4-1.6-2.5-1.6-3 0-4.2 16.2-17 29-33.2 33.2-1.6 0.4-1.6 2.5 0 3 16.2 4.2 29 17 33.2 33.2 0.4 1.6 2.5 1.6 3 0 4.2-16.2 17-29 33.2-33.2 1.6-0.5 1.6-2.6 0-3z" fill="#FFFFFF" p-id="4983"></path><path d="M387 512h125l-62.5-108.2L165.6 312z" fill="#FFE572" p-id="4984"></path></svg>