<?xml version="1.0" standalone="no"?><!DOCTYPE svg PUBLIC "-//W3C//DTD SVG 1.1//EN" "http://www.w3.org/Graphics/SVG/1.1/DTD/svg11.dtd"><svg t="1638115086875" class="icon" viewBox="0 0 1024 1024" version="1.1" xmlns="http://www.w3.org/2000/svg" p-id="6235" xmlns:xlink="http://www.w3.org/1999/xlink" width="200" height="200"><defs><style type="text/css"></style></defs><path d="M511.9 228.9v566.2L266.8 653.6V370.4z" fill="#EAFF8B" p-id="6236"></path><path d="M199.36 253.611l245.25-141.6 67.45 116.824-245.25 141.6z" fill="#B5E668" p-id="6237"></path><path d="M511.9 228.9l0.2-0.2v0.2zM512.1 112v116.6L444.5 112zM266.8 370.4l-67.5-116.8-33.7 58.4-33.7 58.4h134.9zM266.8 653.6H131.9l33.7 58.4 33.7 58.4 67.5-116.8z" fill="#89CC5C" p-id="6238"></path><path d="M131.9 370.4h134.9v283.2H131.9z" fill="#B5E668" p-id="6239"></path><path d="M511.926 795.125l245.251-141.6 67.45 116.824-245.251 141.6z" fill="#89CC5C" p-id="6240"></path><path d="M512.1 795.4V912h-67.6l67.4-116.9z" fill="#89CC5C" p-id="6241"></path><path d="M757.2 653.6l67.5 116.8 33.7-58.4 33.7-58.4H757.2zM757.2 370.4h134.9L858.4 312l-33.7-58.4-67.5 116.8z" fill="#64B350" p-id="6242"></path><path d="M892.14 653.58h-134.9v-283.2h134.9z" fill="#89CC5C" p-id="6243"></path><path d="M199.313 770.419l67.45-116.824 245.25 141.6-67.45 116.824z" fill="#B5E668" p-id="6244"></path><path d="M824.693 253.6l-67.45 116.823-245.251-141.6 67.45-116.824z" fill="#89CC5C" p-id="6245"></path><path d="M757.2 370.4v283.2L511.9 795.1V228.9z" fill="#B5E668" p-id="6246"></path><path d="M579.5 912h-67.4V795.4zM579.5 112l-67.4 116.6V112z" fill="#64B350" p-id="6247"></path><path d="M788.2 359.2c-20.7-4.7-36.9-21-41.6-41.6-0.4-1.6-2.4-1.6-2.8 0-4.7 20.7-21 36.9-41.6 41.6-1.6 0.4-1.6 2.4 0 2.8 20.7 4.7 36.9 21 41.6 41.6 0.4 1.6 2.4 1.6 2.8 0 4.7-20.7 21-36.9 41.6-41.6 1.5-0.4 1.5-2.5 0-2.8zM671.6 286.2c-16.2-4.2-29-17-33.2-33.2-0.4-1.6-2.5-1.6-3 0-4.2 16.2-17 29-33.2 33.2-1.6 0.4-1.6 2.5 0 3 16.2 4.2 29 17 33.2 33.2 0.4 1.6 2.5 1.6 3 0 4.2-16.2 17-29 33.2-33.2 1.6-0.5 1.6-2.6 0-3z" fill="#FFFFFF" p-id="6248"></path></svg>