<?xml version="1.0" standalone="no"?><!DOCTYPE svg PUBLIC "-//W3C//DTD SVG 1.1//EN" "http://www.w3.org/Graphics/SVG/1.1/DTD/svg11.dtd"><svg t="1638115072771" class="icon" viewBox="0 0 1024 1024" version="1.1" xmlns="http://www.w3.org/2000/svg" p-id="5906" xmlns:xlink="http://www.w3.org/1999/xlink" width="200" height="200"><defs><style type="text/css"></style></defs><path d="M512 338.2v347.6l-86.9 54.7-93.8-228.4 93.8-228.6z" fill="#EAFF8B" p-id="5907"></path><path d="M425.1 283.5L227.6 394.6c18.6-72.6 53.1-131.2 91.9-177.6l105.6 66.5zM512 72v139.1l-86.9 72.4z" fill="#89CC5C" p-id="5908"></path><path d="M512 72l-86.9 211.5L319.5 217c83.6-100 187-142.8 192.3-144.9l0.2-0.1zM331.3 512.1H213.2c0-42.7 5.3-81.7 14.4-117.5l103.7 117.5z" fill="#64B350" p-id="5909"></path><path d="M425.1 283.5l-93.8 228.6-103.7-117.5zM512 211.1v127.1l-86.9-54.7z" fill="#B5E668" p-id="5910"></path><path d="M425.1 740.5L319.5 807c-38.8-46.4-73.4-105-91.9-177.6l197.5 111.1z" fill="#89CC5C" p-id="5911"></path><path d="M512 952l-0.2-0.1c-5.3-2.1-108.7-44.9-192.3-144.9l105.6-66.4L512 952z" fill="#64B350" p-id="5912"></path><path d="M512 812.9V952l-86.9-211.5zM331.3 512.1L227.6 629.4c-9.2-35.7-14.4-74.8-14.4-117.4h118.1z" fill="#89CC5C" p-id="5913"></path><path d="M425.1 740.5L227.6 629.4l103.7-117.3zM512 685.8v127.1l-86.9-72.4zM512 338.2v347.6l86.9 54.7 93.8-228.4-93.8-228.6z" fill="#B5E668" p-id="5914"></path><path d="M598.9 283.5l197.5 111.1C777.8 322 743.3 263.4 704.5 217l-105.6 66.5zM512 72v139.1l86.9 72.4z" fill="#64B350" p-id="5915"></path><path d="M512 72l86.9 211.5L704.5 217c-83.6-100-187-142.8-192.3-144.9l-0.2-0.1zM692.7 512.1h118.1c0-42.7-5.3-81.7-14.4-117.5L692.7 512.1z" fill="#35A03A" p-id="5916"></path><path d="M598.9 283.5l93.8 228.6 103.7-117.5zM512 211.1v127.1l86.9-54.7z" fill="#89CC5C" p-id="5917"></path><path d="M598.9 740.5L704.5 807c38.8-46.4 73.4-105 91.9-177.6L598.9 740.5z" fill="#64B350" p-id="5918"></path><path d="M512 952l0.2-0.1c5.3-2.1 108.7-44.9 192.3-144.9l-105.6-66.4L512 952z" fill="#35A03A" p-id="5919"></path><path d="M512 812.9V952l86.9-211.5zM692.7 512.1l103.7 117.4c9.2-35.7 14.4-74.8 14.4-117.4H692.7z" fill="#64B350" p-id="5920"></path><path d="M598.9 740.5l197.5-111.1-103.7-117.3zM512 685.8v127.1l86.9-72.4z" fill="#89CC5C" p-id="5921"></path><path d="M740.7 348.6c-20.7-4.7-36.9-21-41.6-41.6-0.4-1.6-2.4-1.6-2.8 0-4.7 20.7-21 36.9-41.6 41.6-1.6 0.4-1.6 2.4 0 2.8 20.7 4.7 36.9 21 41.6 41.6 0.4 1.6 2.4 1.6 2.8 0 4.7-20.7 21-36.9 41.6-41.6 1.5-0.4 1.5-2.5 0-2.8zM651.1 288.4c-16.2-4.2-29-17-33.2-33.2-0.4-1.6-2.5-1.6-3 0-4.2 16.2-17 29-33.2 33.2-1.6 0.4-1.6 2.5 0 3 16.2 4.2 29 17 33.2 33.2 0.4 1.6 2.5 1.6 3 0 4.2-16.2 17-29 33.2-33.2 1.6-0.5 1.6-2.6 0-3z" fill="#FFFFFF" p-id="5922"></path></svg>