<?xml version="1.0" standalone="no"?><!DOCTYPE svg PUBLIC "-//W3C//DTD SVG 1.1//EN" "http://www.w3.org/Graphics/SVG/1.1/DTD/svg11.dtd"><svg t="1638115080300" class="icon" viewBox="0 0 1024 1024" version="1.1" xmlns="http://www.w3.org/2000/svg" p-id="6072" xmlns:xlink="http://www.w3.org/1999/xlink" width="200" height="200"><defs><style type="text/css"></style></defs><path d="M512 512L334.5 344.8V198.4L512 324.9z" fill="#FF98E3" p-id="6073"></path><path d="M512 512l177.5-167.2V198.4L512 324.9z" fill="#FB7DC9" p-id="6074"></path><path d="M512 72v252.9L334.5 198.4z" fill="#FFBFFD" p-id="6075"></path><path d="M689.5 198.4L512 324.9V72z" fill="#FF98E3" p-id="6076"></path><path d="M512 512L334.5 679.2v146.4L512 699.1z" fill="#FFBFFD" p-id="6077"></path><path d="M512 512l177.5 167.2v146.4L512 699.1zM512 952V699.1L334.5 825.6z" fill="#FF98E3" p-id="6078"></path><path d="M689.5 825.6L512 699.1V952z" fill="#FB7DC9" p-id="6079"></path><path d="M512 512L334.5 344.8H188.2L324.9 512z" fill="#FFBFFD" p-id="6080"></path><path d="M512 512L334.5 679.2H188.2L324.9 512z" fill="#FB7DC9" p-id="6081"></path><path d="M324.9 512L188.2 344.8 72 512l116.2 167.2zM512 512l177.5-167.2h146.3L699.1 512z" fill="#FF98E3" p-id="6082"></path><path d="M512 512l177.5 167.2h146.3L699.1 512z" fill="#FA56A2" p-id="6083"></path><path d="M699.1 512l136.7-167.2L952 512 835.8 679.2z" fill="#FB7DC9" p-id="6084"></path><path d="M753.2 500.9c-20.7-4.7-36.9-21-41.6-41.6-0.4-1.6-2.4-1.6-2.8 0-4.7 20.7-21 36.9-41.6 41.6-1.6 0.4-1.6 2.4 0 2.8 20.7 4.7 36.9 21 41.6 41.6 0.4 1.6 2.4 1.6 2.8 0 4.7-20.7 21-36.9 41.6-41.6 1.5-0.4 1.5-2.5 0-2.8zM648.8 424.1c-16.2-4.2-29-17-33.2-33.2-0.4-1.6-2.5-1.6-3 0-4.2 16.2-17 29-33.2 33.2-1.6 0.4-1.6 2.5 0 3 16.2 4.2 29 17 33.2 33.2 0.4 1.6 2.5 1.6 3 0 4.2-16.2 17-29 33.2-33.2 1.6-0.5 1.6-2.6 0-3z" fill="#FFFFFF" p-id="6085"></path></svg>